<svg xmlns="http://www.w3.org/2000/svg" xmlns:xlink="http://www.w3.org/1999/xlink" width="1920" height="1080" viewBox="0 0 1920 1080">
  <defs>
    <filter id="Прямоугольник_2" x="100" y="472" width="498" height="402" filterUnits="userSpaceOnUse">
      <feOffset dy="3" input="SourceAlpha"/>
      <feGaussianBlur stdDeviation="3" result="blur"/>
      <feFlood flood-opacity="0.161"/>
      <feComposite operator="in" in2="blur"/>
      <feComposite in="SourceGraphic"/>
    </filter>
    <filter id="Прямоугольник_7" x="691" y="472" width="539" height="402" filterUnits="userSpaceOnUse">
      <feOffset dy="3" input="SourceAlpha"/>
      <feGaussianBlur stdDeviation="3" result="blur-2"/>
      <feFlood flood-opacity="0.161"/>
      <feComposite operator="in" in2="blur-2"/>
      <feComposite in="SourceGraphic"/>
    </filter>
    <filter id="Прямоугольник_8" x="1319" y="472" width="501" height="402" filterUnits="userSpaceOnUse">
      <feOffset dy="3" input="SourceAlpha"/>
      <feGaussianBlur stdDeviation="3" result="blur-3"/>
      <feFlood flood-opacity="0.161"/>
      <feComposite operator="in" in2="blur-3"/>
      <feComposite in="SourceGraphic"/>
    </filter>
    <pattern id="pattern" preserveAspectRatio="none" width="100%" height="100%" viewBox="0 0 50 50">
      <image width="50" height="50" xlink:href="../../../Downloads/icons8-coreldraw-50.png"/>
    </pattern>
    <pattern id="pattern-2" preserveAspectRatio="none" width="100%" height="100%" viewBox="0 0 1920 1080">
      <image width="1920" height="1080" xlink:href="../Alexandra%20png%201.png"/>
    </pattern>
    <clipPath id="clip-Web_1920_1">
      <rect width="1920" height="1080"/>
    </clipPath>
    <image id="image" width="30" height="30" xlink:href="../../../Downloads/icons8-%D0%B8%D0%BB%D0%BB%D1%8E%D1%81%D1%82%D1%80%D0%B0%D1%82%D0%BE%D1%80-30.png"/>
  </defs>
  <g id="Web_1920_1" data-name="Web 1920 – 1" clip-path="url(#clip-Web_1920_1)">
    <rect width="1920" height="1080" fill="#fff"/>
    <image id="Слой_1" data-name="Слой 1" width="1774" height="1080" transform="translate(101)" xlink:href="Web%201920%20-%201-image.png"/>
    <rect id="Прямоугольник_1" data-name="Прямоугольник 1" width="590" height="375" transform="translate(1221 69)" fill="#fff"/>
    <g transform="matrix(1, 0, 0, 1, 0, 0)" filter="url(#Прямоугольник_2)">
      <rect id="Прямоугольник_2-2" data-name="Прямоугольник 2" width="480" height="384" transform="translate(109 478)" fill="rgba(255,255,255,0.63)"/>
    </g>
    <g transform="matrix(1, 0, 0, 1, 0, 0)" filter="url(#Прямоугольник_7)">
      <rect id="Прямоугольник_7-2" data-name="Прямоугольник 7" width="521" height="384" transform="translate(700 478)" fill="rgba(255,255,255,0.63)"/>
    </g>
    <g transform="matrix(1, 0, 0, 1, 0, 0)" filter="url(#Прямоугольник_8)">
      <rect id="Прямоугольник_8-2" data-name="Прямоугольник 8" width="483" height="384" transform="translate(1328 478)" fill="rgba(255,255,255,0.63)"/>
    </g>
    <g id="Сгруппировать_11" data-name="Сгруппировать 11">
      <rect id="Прямоугольник_5" data-name="Прямоугольник 5" width="283" height="71" rx="35.5" transform="translate(820 929)"/>
      <path id="Прямоугольник_5_-_Рамка" data-name="Прямоугольник 5 - Рамка" d="M35.5,1A34.509,34.509,0,0,0,22.071,67.289,34.283,34.283,0,0,0,35.5,70h212A34.509,34.509,0,0,0,260.929,3.711,34.283,34.283,0,0,0,247.5,1H35.5m0-1h212a35.5,35.5,0,0,1,0,71H35.5a35.5,35.5,0,0,1,0-71Z" transform="translate(820 929)" fill="#707070"/>
      <text id="Мое_портфолио" data-name="Мое портфолио" transform="translate(840 942)" fill="#fff" font-size="30" font-family="SegoeUI-Bold, Segoe UI" font-weight="700"><tspan x="0" y="32">Мое</tspan><tspan y="32" font-family="Humanist521BT-Bold, Humanst521 BT"> </tspan><tspan y="32">портфолио</tspan></text>
    </g>
    <g id="Сгруппировать_7" data-name="Сгруппировать 7">
      <rect id="Прямоугольник_4" data-name="Прямоугольник 4" width="222" height="71" rx="35.5" transform="translate(367 929)"/>
      <path id="Прямоугольник_4_-_Рамка" data-name="Прямоугольник 4 - Рамка" d="M35.5,1A34.509,34.509,0,0,0,22.071,67.289,34.283,34.283,0,0,0,35.5,70h151A34.509,34.509,0,0,0,199.929,3.711,34.283,34.283,0,0,0,186.5,1H35.5m0-1h151a35.5,35.5,0,0,1,0,71H35.5a35.5,35.5,0,0,1,0-71Z" transform="translate(367 929)" fill="#707070"/>
      <text id="WhatsApp" transform="translate(406 943)" fill="#fff" font-size="30" font-family="Humanist521BT-Bold, Humanst521 BT" font-weight="700"><tspan x="0" y="29">WhatsApp</tspan></text>
    </g>
    <text id="Работаю_в_программах:" data-name="Работаю в программах:" transform="translate(793 494)" fill="#010000" font-size="28" font-family="SegoeUI-Bold, Segoe UI" font-weight="700"><tspan x="0" y="30">Работаю</tspan><tspan y="30" font-family="Humanist521BT-Bold, Humanst521 BT"> </tspan><tspan y="30">в</tspan><tspan y="30" font-family="Humanist521BT-Bold, Humanst521 BT"> </tspan><tspan y="30">программах</tspan><tspan y="30" font-family="Humanist521BT-Bold, Humanst521 BT">:</tspan></text>
    <text id="Мои_навыки:" data-name="Мои навыки:" transform="translate(283 517)" fill="#010000" font-size="28" font-family="SegoeUI-Bold, Segoe UI" font-weight="700"><tspan x="0" y="30">Мои</tspan><tspan y="30" font-family="Humanist521BT-Bold, Humanst521 BT"> </tspan><tspan y="30">навыки</tspan><tspan y="30" font-family="Humanist521BT-Bold, Humanst521 BT">:</tspan></text>
    <text id="Обо_мне_:" data-name="Обо мне :" transform="translate(1500 510)" fill="#010000" font-size="28" font-family="SegoeUI-Bold, Segoe UI" font-weight="700"><tspan x="0" y="30">Обо</tspan><tspan y="30" font-family="Humanist521BT-Bold, Humanst521 BT"> </tspan><tspan y="30">мне</tspan><tspan y="30" xml:space="preserve" font-family="Humanist521BT-Bold, Humanst521 BT"> :</tspan></text>
    <text id="Иллюстрация" transform="translate(277 572)" fill="#010000" font-size="28" font-family="SegoeUI, Segoe UI"><tspan x="0" y="30">Иллюстрация</tspan></text>
    <text id="Adobe_Photoshop" data-name="Adobe Photoshop" transform="translate(866 539)" fill="#010000" font-size="28" font-family="Humanist521BT-Roman, Humanst521 BT"><tspan x="0" y="27">Adobe Photoshop</tspan></text>
    <text id="Брендинг" transform="translate(277 625)" fill="#010000" font-size="28" font-family="SegoeUI, Segoe UI"><tspan x="0" y="30">Брендинг</tspan></text>
    <text id="Adobe_Illustrator" data-name="Adobe Illustrator" transform="translate(866 577)" fill="#010000" font-size="28" font-family="Humanist521BT-Roman, Humanst521 BT"><tspan x="0" y="27">Adobe Illustrator</tspan></text>
    <text id="Полиграфия" transform="translate(277 678)" fill="#010000" font-size="28" font-family="SegoeUI, Segoe UI"><tspan x="0" y="30">Полиграфия</tspan></text>
    <text id="Adobe_After_Effects" data-name="Adobe After Effects" transform="translate(864 615)" fill="#010000" font-size="28" font-family="Humanist521BT-Roman, Humanst521 BT"><tspan x="0" y="27">Adobe After Effects</tspan></text>
    <text id="Образование:_Международный_Университет_Астана_." data-name="Образование:
 
Международный Университет Астана ." transform="translate(1370 565)" fill="#010000" font-size="28" font-family="SegoeUI-Italic, Segoe UI" font-style="italic"><tspan x="117.049" y="30">Образование</tspan><tspan y="30" font-family="Humanist521BT-Italic, Humanst521 BT">:</tspan><tspan font-family="Humanist521BT-Italic, Humanst521 BT"><tspan x="205" y="60"> </tspan></tspan><tspan font-family="SegoeUI, Segoe UI" font-style="normal"><tspan x="10.729" y="90">Международный</tspan><tspan y="90" font-family="Humanist521BT-Roman, Humanst521 BT"> </tspan><tspan y="90">Университет</tspan><tspan y="90" font-family="Humanist521BT-Roman, Humanst521 BT"> </tspan><tspan x="154.38" y="120">Астана</tspan><tspan y="120" xml:space="preserve" font-family="Humanist521BT-Roman, Humanst521 BT"> .</tspan></tspan></text>
    <text id="_3D_Графика" data-name="3D Графика" transform="translate(277 731)" fill="#010000" font-size="28" font-family="Humanist521BT-Roman, Humanst521 BT"><tspan x="0" y="30">3D </tspan><tspan y="30" font-family="SegoeUI, Segoe UI">Графика</tspan></text>
    <text id="Adobe_Indesign" data-name="Adobe Indesign" transform="translate(866 653)" fill="#010000" font-size="28" font-family="Humanist521BT-Roman, Humanst521 BT"><tspan x="0" y="27">Adobe Indesign</tspan></text>
    <text id="Adobe_XD" data-name="Adobe XD" transform="translate(864 691)" fill="#010000" font-size="28" font-family="Humanist521BT-Roman, Humanst521 BT"><tspan x="0" y="27">Adobe XD</tspan></text>
    <text id="_3D_Визуализация_" data-name="3D Визуализация " transform="translate(277 784)" fill="#010000" font-size="28" font-family="Humanist521BT-Roman, Humanst521 BT"><tspan x="0" y="30">3D </tspan><tspan y="30" font-family="SegoeUI, Segoe UI">Визуализация</tspan><tspan y="30"> </tspan></text>
    <text id="Blender" transform="translate(866 765)" fill="#010000" font-size="28" font-family="Humanist521BT-Roman, Humanst521 BT"><tspan x="0" y="27">Blender</tspan></text>
    <text id="_3DS_Max" data-name="3DS Max" transform="translate(864 801)" fill="#010000" font-size="28" font-family="Humanist521BT-Roman, Humanst521 BT"><tspan x="0" y="27">3DS Max</tspan></text>
    <text id="CorelDraw" transform="translate(864 728)" fill="#010000" font-size="28" font-family="Humanist521BT-Roman, Humanst521 BT"><tspan x="0" y="27">CorelDraw</tspan></text>
    <g id="Сгруппировать_10" data-name="Сгруппировать 10">
      <g id="Компонент_2_1" data-name="Компонент 2 – 1" transform="translate(1328 929)">
        <g id="Прямоугольник_6" data-name="Прямоугольник 6" stroke="#707070" stroke-width="1">
          <rect width="222" height="71" rx="35.5" stroke="none"/>
          <rect x="0.5" y="0.5" width="221" height="70" rx="35" fill="none"/>
        </g>
      </g>
      <text id="E-MAIL" transform="translate(1387 946)" fill="#fff" font-size="30" font-family="Humanist521BT-Bold, Humanst521 BT" font-weight="700"><tspan x="0" y="29">E-MAIL</tspan></text>
    </g>
    <g id="Сгруппировать_3" data-name="Сгруппировать 3">
      <text id="Графический_дизайнер" data-name="Графический дизайнер" transform="translate(1347 237)" fill="#010000" font-size="28" font-family="SegoeUI-Bold, Segoe UI" font-weight="700"><tspan x="0" y="30">Графический</tspan><tspan y="30" font-family="Humanist521BT-Bold, Humanst521 BT"> </tspan><tspan y="30">дизайнер</tspan></text>
      <text id="Воплощу_любые_Ваши_идеи_в_жизнь_" data-name="Воплощу любые Ваши идеи в жизнь !" transform="translate(1285 297)" fill="#010000" font-size="40" font-family="SegoeUI, Segoe UI"><tspan x="27.492" y="43">Воплощу</tspan><tspan y="43" font-family="Humanist521BT-Roman, Humanst521 BT"> </tspan><tspan y="43">любые</tspan><tspan y="43" font-family="Humanist521BT-Roman, Humanst521 BT"> </tspan><tspan y="43">Ваши</tspan><tspan y="43" font-family="Humanist521BT-Roman, Humanst521 BT"> </tspan><tspan x="100.529" y="83">идеи</tspan><tspan y="83" font-family="Humanist521BT-Roman, Humanst521 BT"> </tspan><tspan y="83">в</tspan><tspan y="83" font-family="Humanist521BT-Roman, Humanst521 BT"> </tspan><tspan y="83">жизнь</tspan><tspan y="83" xml:space="preserve" font-family="Humanist521BT-Roman, Humanst521 BT"> !</tspan></text>
      <text id="Я_Александра_" data-name="Я Александра ! 

" transform="translate(1186 137)" fill="#030000" font-size="55" font-family="SegoeUI-Light, Segoe UI" font-weight="300"><tspan x="153.691" y="59">Я</tspan><tspan y="59" font-family="Humanist521BT-Light, Humanst521 Lt BT"> </tspan><tspan y="59">Александра</tspan><tspan y="59" xml:space="preserve" font-family="Humanist521BT-Light, Humanst521 Lt BT"> ! </tspan></text>
    </g>
    <use id="icons8-иллюстратор-30" transform="translate(593 543)" xlink:href="#image"/>
    <use id="icons8-иллюстратор-30-2" data-name="icons8-иллюстратор-30" transform="translate(230 579)" xlink:href="#image"/>
    <image id="icons8-брендинг-50" width="36" height="36" transform="translate(229 628)" xlink:href="../../../Downloads/icons8-%D0%B1%D1%80%D0%B5%D0%BD%D0%B4%D0%B8%D0%BD%D0%B3-50.png"/>
    <image id="icons8-буклет-50" width="29" height="29" transform="translate(233 684)" xlink:href="../../../Downloads/icons8-%D0%B1%D1%83%D0%BA%D0%BB%D0%B5%D1%82-50.png"/>
    <image id="icons8-3d-24" width="31" height="31" transform="translate(232 736)" xlink:href="../../../Downloads/icons8-3d-24.png"/>
    <image id="icons8-кофе-с-собой-50" width="36" height="36" transform="translate(230 785)" xlink:href="../../../Downloads/icons8-%D0%BA%D0%BE%D1%84%D0%B5-%D1%81-%D1%81%D0%BE%D0%B1%D0%BE%D0%B9-50.png"/>
    <image id="icons8-adobe-photoshop-50" width="36" height="36" transform="translate(815 541)" xlink:href="../../../Downloads/icons8-adobe-photoshop-50.png"/>
    <image id="icons8-adobe-illustrator-50" width="36" height="36" transform="translate(815 578)" xlink:href="../../../Downloads/icons8-adobe-illustrator-50.png"/>
    <image id="icons8-adobe-after-effects-50" width="36" height="36" transform="translate(815 615)" xlink:href="../../../Downloads/icons8-adobe-after-effects-50.png"/>
    <image id="icons8-adobe-indesign-50" width="36" height="36" transform="translate(815 652)" xlink:href="../../../Downloads/icons8-adobe-indesign-50.png"/>
    <image id="icons8-adobe-xd-50" width="36" height="36" transform="translate(815 689)" xlink:href="../../../Downloads/icons8-adobe-xd-50.png"/>
    <image id="icons8-blender-3d-32" width="31" height="31" transform="translate(817 768)" xlink:href="../../../Downloads/icons8-blender-3d-32.png"/>
    <image id="icons8-3ds-max-50" width="26" height="26" transform="translate(822 806)" xlink:href="../../../Downloads/icons8-3ds-max-50.png"/>
    <rect id="icons8-coreldraw-50" width="30" height="30" rx="15" transform="translate(818 731)" fill="url(#pattern)"/>
    <g id="Сгруппировать_2" data-name="Сгруппировать 2" transform="translate(-3 24)">
      <text id="Языки:_Русский_English" data-name="Языки:

  Русский            English" transform="translate(1408 688)" fill="#010000" font-size="28" font-family="SegoeUI-Italic, Segoe UI" font-style="italic"><tspan x="124.542" y="30">Языки</tspan><tspan y="30" font-family="Humanist521BT-Italic, Humanst521 BT">:</tspan><tspan font-family="Humanist521BT-Italic, Humanst521 BT"><tspan x="167" y="60"></tspan></tspan><tspan font-family="Humanist521BT-Roman, Humanst521 BT" font-style="normal"><tspan x="27.8" y="90" xml:space="preserve">  </tspan><tspan y="90" font-family="SegoeUI, Segoe UI">Русский</tspan><tspan y="90" xml:space="preserve">            English</tspan></tspan></text>
      <image id="icons8-language-67" width="40" height="40" transform="translate(1401 748)" xlink:href="../../../Downloads/icons8-language-67.png"/>
      <image id="icons8-en-67" width="37" height="37" transform="translate(1590 749)" xlink:href="../../../Downloads/icons8-en-67.png"/>
    </g>
    <image id="Лицо" width="919" height="517" transform="translate(388 63)" xlink:href="../%D0%9B%D0%B8%D1%86%D0%BE.png"/>
    <rect id="Alexandra_png_1" data-name="Alexandra png 1" width="612" height="344" transform="translate(197 121)" fill="url(#pattern-2)"/>
  </g>
</svg>
