<svg xmlns="http://www.w3.org/2000/svg" xmlns:xlink="http://www.w3.org/1999/xlink" width="1920" height="4774" viewBox="0 0 1920 4774">
  <defs>
    <pattern id="pattern" preserveAspectRatio="none" width="100%" height="100%" viewBox="0 0 1920 1080">
      <image width="1920" height="1080" xlink:href="../Alexandra%20png%201.png"/>
    </pattern>
    <pattern id="pattern-2" preserveAspectRatio="none" width="100%" height="100%" viewBox="0 0 3508 2480">
      <image width="3508" height="2480" xlink:href="../%D0%9F%D0%BE%D1%80%D1%82%D1%84%D0%BE%D0%BB%D0%B8%D0%BE/%D0%A0%D0%BE%D0%BC%D0%B0%D1%88%D0%BA%D0%B0.jpg"/>
    </pattern>
    <pattern id="pattern-3" preserveAspectRatio="none" width="100%" height="100%" viewBox="0 0 452 312">
      <image width="452" height="312" xlink:href="../%D0%9F%D0%BE%D1%80%D1%82%D1%84%D0%BE%D0%BB%D0%B8%D0%BE/WhatsApp%20Image%202023-01-10%20at%2022.15.38.jpeg"/>
    </pattern>
    <clipPath id="clip-Web_1920_2">
      <rect width="1920" height="4774"/>
    </clipPath>
    <image id="image" width="2743" height="1670" xlink:href="Web%201920%20-%202-image.png"/>
  </defs>
  <g id="Web_1920_2" data-name="Web 1920 – 2" clip-path="url(#clip-Web_1920_2)">
    <rect width="1920" height="4774" fill="#fff"/>
    <use id="Слой_1" data-name="Слой 1" transform="translate(1770.937 76.414) rotate(89)" opacity="0.32" xlink:href="#image"/>
    <use id="Слой_1-2" data-name="Слой 1" transform="matrix(0.094, -1.079, 1.079, 0.094, -141.056, 5156.801)" opacity="0.49" xlink:href="#image"/>
    <rect id="Alexandra_png_1" data-name="Alexandra png 1" width="290" height="163" transform="translate(815 108)" fill="url(#pattern)"/>
    <rect id="Ромашка" width="684" height="483" transform="translate(276 328)" fill="url(#pattern-2)"/>
    <rect id="WhatsApp_Image_2023-01-10_at_22.15.38" data-name="WhatsApp Image 2023-01-10 at 22.15.38" width="702" height="485" transform="translate(960 326)" fill="url(#pattern-3)"/>
    <text id="Разработка_логотипа." data-name="Разработка логотипа." transform="translate(360 883)" fill="#010000" font-size="40" font-family="SegoeUI, Segoe UI"><tspan x="0" y="43">Разработка</tspan><tspan y="43" font-family="Humanist521BT-Roman, Humanst521 BT"> </tspan><tspan y="43">логотипа</tspan><tspan y="43" font-family="Humanist521BT-Roman, Humanst521 BT">.</tspan></text>
    <text id="Иллюстрация_" data-name="Иллюстрация " transform="translate(825 2354)" fill="#010000" font-size="40" font-family="SegoeUI, Segoe UI"><tspan x="0" y="43">Иллюстрация</tspan><tspan y="43" font-family="Humanist521BT-Roman, Humanst521 BT"> </tspan></text>
    <text id="Брендинг" transform="translate(866 3428)" fill="#010000" font-size="40" font-family="SegoeUI, Segoe UI"><tspan x="0" y="43">Брендинг</tspan></text>
    <text id="_3D_Графика" data-name="3D  Графика" transform="translate(824 4457)" fill="#010000" font-size="40" font-family="Humanist521BT-Roman, Humanst521 BT"><tspan x="0" y="43" xml:space="preserve">3D  </tspan><tspan y="43" font-family="SegoeUI, Segoe UI">Графика</tspan></text>
    <text id="Логотип-слово" transform="translate(1196 883)" fill="#010000" font-size="40" font-family="SegoeUI, Segoe UI"><tspan x="0" y="43">Логотип</tspan><tspan y="43" font-family="Humanist521BT-Roman, Humanst521 BT">-</tspan><tspan y="43">слово</tspan></text>
    <image id="WhatsApp_Image_2023-01-10_at_21.50.24" data-name="WhatsApp Image 2023-01-10 at 21.50.24" width="759.968" height="584.35" transform="translate(175.096 1738.65)" xlink:href="../%D0%9F%D0%BE%D1%80%D1%82%D1%84%D0%BE%D0%BB%D0%B8%D0%BE/WhatsApp%20Image%202023-01-10%20at%2021.50.24.jpeg"/>
    <image id="WhatsApp_Image_2023-01-10_at_21.41.20" data-name="WhatsApp Image 2023-01-10 at 21.41.20" width="734.5" height="620" transform="translate(1054 1038)" xlink:href="../%D0%9F%D0%BE%D1%80%D1%82%D1%84%D0%BE%D0%BB%D0%B8%D0%BE/WhatsApp%20Image%202023-01-10%20at%2021.41.20.jpeg"/>
    <image id="WhatsApp_Image_2023-01-10_at_21.51.05" data-name="WhatsApp Image 2023-01-10 at 21.51.05" width="858.809" height="621.701" transform="translate(144.095 1036.299)" xlink:href="../%D0%9F%D0%BE%D1%80%D1%82%D1%84%D0%BE%D0%BB%D0%B8%D0%BE/WhatsApp%20Image%202023-01-10%20at%2021.51.05.jpeg"/>
    <image id="WhatsApp_Image_2023-01-10_at_21.49.46" data-name="WhatsApp Image 2023-01-10 at 21.49.46" width="747" height="571.057" transform="translate(1000.5 1738.65)" xlink:href="../%D0%9F%D0%BE%D1%80%D1%82%D1%84%D0%BE%D0%BB%D0%B8%D0%BE/WhatsApp%20Image%202023-01-10%20at%2021.49.46.jpeg"/>
    <image id="WhatsApp_Image_2023-01-10_at_21.42.42" data-name="WhatsApp Image 2023-01-10 at 21.42.42" width="747.028" height="917.024" transform="translate(147.972 2468)" xlink:href="../%D0%9F%D0%BE%D1%80%D1%82%D1%84%D0%BE%D0%BB%D0%B8%D0%BE/WhatsApp%20Image%202023-01-10%20at%2021.42.42.jpeg"/>
    <image id="WhatsApp_Image_2023-01-10_at_21.37.20" data-name="WhatsApp Image 2023-01-10 at 21.37.20" width="830.75" height="848.346" transform="translate(951 2502.339)" xlink:href="../%D0%9F%D0%BE%D1%80%D1%82%D1%84%D0%BE%D0%BB%D0%B8%D0%BE/WhatsApp%20Image%202023-01-10%20at%2021.37.20.jpeg"/>
    <image id="Пончек" width="1484" height="835" transform="translate(226 3552)" xlink:href="../%D0%9F%D0%BE%D0%BD%D1%87%D0%B5%D0%BA.jpg"/>
    <g id="Сгруппировать_29" data-name="Сгруппировать 29" transform="translate(343 4511)">
      <rect id="Прямоугольник_12" data-name="Прямоугольник 12" width="452" height="145" rx="64"/>
      <path id="Прямоугольник_12_-_Рамка" data-name="Прямоугольник 12 - Рамка" d="M64,1A62.7,62.7,0,0,0,28.777,11.759,63.186,63.186,0,0,0,5.95,39.478,62.6,62.6,0,0,0,1,64V81a62.7,62.7,0,0,0,10.759,35.223A63.187,63.187,0,0,0,39.478,139.05,62.6,62.6,0,0,0,64,144H388a62.7,62.7,0,0,0,35.223-10.759,63.186,63.186,0,0,0,22.826-27.719A62.6,62.6,0,0,0,451,81V64a62.7,62.7,0,0,0-10.759-35.223A63.187,63.187,0,0,0,412.522,5.95,62.6,62.6,0,0,0,388,1H64m0-1H388a64,64,0,0,1,64,64V81a64,64,0,0,1-64,64H64A64,64,0,0,1,0,81V64A64,64,0,0,1,64,0Z" fill="#707070"/>
      <text id="WhatsApp" transform="translate(80 87)" fill="#fff" font-size="60" font-family="Humanist521BT-Bold, Humanst521 BT" font-weight="700"><tspan x="0" y="0">WhatsApp</tspan></text>
    </g>
    <g id="Сгруппировать_28" data-name="Сгруппировать 28" transform="translate(1106.693 4511)">
      <rect id="Прямоугольник_14" data-name="Прямоугольник 14" width="452" height="145" rx="64" transform="translate(0.306)"/>
      <path id="Прямоугольник_14_-_Рамка" data-name="Прямоугольник 14 - Рамка" d="M64,1A62.7,62.7,0,0,0,28.777,11.759,63.186,63.186,0,0,0,5.95,39.478,62.6,62.6,0,0,0,1,64V81a62.7,62.7,0,0,0,10.759,35.223A63.187,63.187,0,0,0,39.478,139.05,62.6,62.6,0,0,0,64,144H388a62.7,62.7,0,0,0,35.223-10.759,63.186,63.186,0,0,0,22.826-27.719A62.6,62.6,0,0,0,451,81V64a62.7,62.7,0,0,0-10.759-35.223A63.187,63.187,0,0,0,412.522,5.95,62.6,62.6,0,0,0,388,1H64m0-1H388a64,64,0,0,1,64,64V81a64,64,0,0,1-64,64H64A64,64,0,0,1,0,81V64A64,64,0,0,1,64,0Z" transform="translate(0.306)" fill="#707070"/>
      <text id="E-MAIL" transform="translate(120.307 94)" fill="#fff" font-size="61" font-family="Humanist521BT-Bold, Humanst521 BT" font-weight="700"><tspan x="0" y="0">E-MAIL</tspan></text>
    </g>
  </g>
</svg>
